<?xml version="1.0" encoding="UTF-8"?> <svg xmlns="http://www.w3.org/2000/svg" width="800px" height="800px" viewBox="0 -5.34 47.608 47.608" fill="#000000"><g id="SVGRepo_bgCarrier" stroke-width="0"></g><g id="SVGRepo_tracerCarrier" stroke-linecap="round" stroke-linejoin="round"></g><g id="SVGRepo_iconCarrier"><g transform="translate(-629.25 -210.949)"><path d="M665.8,233.227l2.18,2.181a2.215,2.215,0,0,1,0,3.134h0a2.215,2.215,0,0,1-3.134,0l-1.521-1.52" fill="none" stroke="#c63e34c7" stroke-linecap="round" stroke-linejoin="round" stroke-width="1"></path><path d="M662.664,236.362l3.5,3.5a2.218,2.218,0,0,1,0,3.135h0a2.216,2.216,0,0,1-3.135,0l-3.5-3.5" fill="none" stroke="#c63e34c7" stroke-linecap="round" stroke-linejoin="round" stroke-width="1"></path><path d="M658.65,238.617l3.72,3.72a2.218,2.218,0,0,1,0,3.135h0a2.218,2.218,0,0,1-3.135,0l-3.72-3.72" fill="none" stroke="#c63e34c7" stroke-linecap="round" stroke-linejoin="round" stroke-width="1"></path><path d="M654.635,240.872l2.09,2.09a2.276,2.276,0,0,1-.083,3.217h0a2.277,2.277,0,0,1-3.217.082l-1.567-1.567" fill="none" stroke="#c63e34c7" stroke-linecap="round" stroke-linejoin="round" stroke-width="1"></path><line x2="10.899" y2="10.899" transform="translate(654.9 222.328)" stroke-width="1" stroke="#c63e34c7" stroke-linecap="round" stroke-linejoin="round" fill="none"></line><path d="M639.061,231.9l-9.311-9.311,9.8-9.67,4.472,4.473a19.473,19.473,0,0,1,9.237.149" fill="none" stroke="#c63e34c7" stroke-linecap="round" stroke-linejoin="round" stroke-width="1"></path><rect width="4.433" height="7.019" rx="2.127" transform="translate(649.376 247.176) rotate(-135)" stroke-width="1" stroke="#c63e34c7" stroke-linecap="round" stroke-linejoin="round" fill="none"></rect><rect width="4.433" height="8.208" rx="2.127" transform="translate(645.741 244.026) rotate(-135)" stroke-width="1" stroke="#c63e34c7" stroke-linecap="round" stroke-linejoin="round" fill="none"></rect><rect width="4.433" height="8.208" rx="2.127" transform="translate(639.472 237.756) rotate(-135)" stroke-width="1" stroke="#c63e34c7" stroke-linecap="round" stroke-linejoin="round" fill="none"></rect><rect width="4.433" height="9.836" rx="2.127" transform="translate(642.031 241.467) rotate(-135)" stroke-width="1" stroke="#c63e34c7" stroke-linecap="round" stroke-linejoin="round" fill="none"></rect><path d="M665.139,231.908l11.219-11.219-9.239-9.24-7.974,8.195s-5.307-3.658-8.277-1.348A39.55,39.55,0,0,1,646.879,221a2.512,2.512,0,0,0-.991,3.2h0a2.52,2.52,0,0,0,3.463,1.19l5.219-2.734" fill="none" stroke="#c63e34c7" stroke-linecap="round" stroke-linejoin="round" stroke-width="1"></path></g></g></svg> 