<?xml version="1.0" encoding="UTF-8"?> <svg xmlns="http://www.w3.org/2000/svg" xmlns:xlink="http://www.w3.org/1999/xlink" fill="#c63e34d4" height="800px" width="800px" version="1.1" id="Layer_1" viewBox="0 0 512 512" xml:space="preserve"> <g id="SVGRepo_bgCarrier" stroke-width="0"></g> <g id="SVGRepo_tracerCarrier" stroke-linecap="round" stroke-linejoin="round"></g> <g id="SVGRepo_iconCarrier"> <g transform="translate(1 1)"> <g> <g> <path d="M152.6,408.6c-9.387,0-17.067-7.68-17.067-17.067c0-9.387,7.68-17.067,17.067-17.067c5.12,0,8.533-3.413,8.533-8.533 c0-20.963-14.452-37.981-34.133-41.841v-26.425h8.533c5.12,0,8.533-3.413,8.533-8.533v-230.4c0-5.12-3.413-8.533-8.533-8.533 V31.427c0-17.92-14.507-32.427-33.28-32.427H65.56C47.64-1,33.133,13.507,33.133,31.427V50.2c-5.12,0-8.533,3.413-8.533,8.533 V75.8H7.533C2.413,75.8-1,79.213-1,84.333V203.8c0,5.12,3.413,8.533,8.533,8.533s8.533-3.413,8.533-8.533V92.867H24.6v196.267 c0,5.12,3.413,8.533,8.533,8.533h8.533v26.425c-19.681,3.86-34.133,20.878-34.133,41.841c0,5.12,3.413,8.533,8.533,8.533 c9.387,0,17.067,7.68,17.067,17.067c0,9.387-7.68,17.067-17.067,17.067c-3.413,0-5.973,2.56-7.68,4.267 c-1.707,3.413-0.853,6.827,0.853,9.387l68.267,85.333c1.707,2.56,4.267,3.413,6.827,3.413s5.12-0.853,6.827-2.56l68.267-85.333 c1.707-2.56,2.56-6.827,0.853-9.387C158.573,410.307,156.013,408.6,152.6,408.6z M127,280.6h-8.533H50.2h-8.533v-52.907h25.6 c4.267,0,8.533-3.413,8.533-8.533c0-5.12-3.413-8.533-8.533-8.533h-25.6V188.44H75.8c4.267,0,8.533-3.413,8.533-8.533 s-3.413-8.533-8.533-8.533H41.667v-27.307H127V280.6z M41.667,67.267H127V127H41.667V67.267z M50.2,31.427 c0-8.533,6.827-15.36,15.36-15.36h37.547c8.533,0,15.36,6.827,15.36,15.36V50.2H50.2V31.427z M109.933,297.667v25.6h-51.2v-25.6 H109.933z M75.8,422.253v-10.24l3.413-3.413h10.24l3.413,3.413v10.24l-3.413,3.413h-10.24L75.8,422.253z M92.867,478.078v-35.344 c2.56,0,4.267-0.853,5.973-2.56l8.533-8.533c1.707-1.707,2.56-3.413,2.56-5.973V408.6c0-2.56-0.853-4.267-2.56-5.973 l-8.533-8.533c-1.707-1.707-3.413-2.56-5.973-2.56H75.8c-2.56,0-4.267,0.853-5.973,2.56l-8.533,8.533 c-1.707,1.707-2.56,3.413-2.56,5.973v17.067c0,2.56,0.853,4.267,2.56,5.973l8.533,8.533c1.707,1.707,3.413,2.56,5.973,2.56 v35.345l-44.373-55.825c11.093-5.12,18.773-17.067,18.773-30.72c0-15.36-10.24-28.16-24.747-32.427 c3.413-11.093,12.8-18.773,24.747-18.773h68.267c11.947,0,21.333,7.68,24.747,18.773c-14.507,3.413-24.747,17.067-24.747,32.427 c0,13.653,7.68,25.6,18.773,30.72L92.867,478.078z"></path> <path d="M502.467-1H178.2c-5.12,0-8.533,3.413-8.533,8.533v460.8c0,5.12,3.413,8.533,8.533,8.533h324.267 c5.12,0,8.533-3.413,8.533-8.533V7.533C511,2.413,507.587-1,502.467-1z M493.933,459.8h-307.2V16.067h307.2V459.8z"></path> <path d="M295.107,115.907l11.093-11.093v39.253c0,5.12,3.413,8.533,8.533,8.533s8.533-3.413,8.533-8.533v-56.32l17.067-17.067 L357.4,87.747v56.32c0,5.12,3.413,8.533,8.533,8.533s8.533-3.413,8.533-8.533v-39.253l11.093,11.093 c1.707,1.707,3.413,2.56,5.973,2.56c2.56,0,4.267-0.853,5.973-2.56c3.413-3.413,3.413-8.533,0-11.947l-24.14-24.14 c-0.689-1.239-1.681-2.232-2.92-2.92l-24.14-24.14c-3.413-3.413-8.533-3.413-11.947,0L310.22,76.9 c-1.239,0.689-2.232,1.681-2.92,2.92l-24.14,24.14c-3.413,3.413-3.413,8.533,0,11.947 C286.573,119.32,291.693,119.32,295.107,115.907z"></path> <path d="M365.933,212.333c0,5.12,3.413,8.533,8.533,8.533h93.867c5.12,0,8.533-3.413,8.533-8.533c0-5.12-3.413-8.533-8.533-8.533 h-93.867C369.347,203.8,365.933,207.213,365.933,212.333z"></path> <path d="M212.333,220.867H255c5.12,0,8.533-3.413,8.533-8.533c0-5.12-3.413-8.533-8.533-8.533h-42.667 c-5.12,0-8.533,3.413-8.533,8.533C203.8,217.453,207.213,220.867,212.333,220.867z"></path> <path d="M383,246.467c0-5.12-3.413-8.533-8.533-8.533H306.2c-5.12,0-8.533,3.413-8.533,8.533S301.08,255,306.2,255h68.267 C379.587,255,383,251.587,383,246.467z"></path> <path d="M212.333,255h59.733c5.12,0,8.533-3.413,8.533-8.533s-3.413-8.533-8.533-8.533h-59.733c-5.12,0-8.533,3.413-8.533,8.533 S207.213,255,212.333,255z"></path> <path d="M468.333,272.067h-128c-5.12,0-8.533,3.413-8.533,8.533s3.413,8.533,8.533,8.533h128c5.12,0,8.533-3.413,8.533-8.533 S473.453,272.067,468.333,272.067z"></path> <path d="M212.333,289.133H306.2c5.12,0,8.533-3.413,8.533-8.533s-3.413-8.533-8.533-8.533h-93.867 c-5.12,0-8.533,3.413-8.533,8.533S207.213,289.133,212.333,289.133z"></path> <path d="M468.333,306.2h-51.2c-5.12,0-8.533,3.413-8.533,8.533s3.413,8.533,8.533,8.533h51.2c5.12,0,8.533-3.413,8.533-8.533 S473.453,306.2,468.333,306.2z"></path> <path d="M468.333,408.6h-93.867c-5.12,0-8.533,3.413-8.533,8.533s3.413,8.533,8.533,8.533h93.867c5.12,0,8.533-3.413,8.533-8.533 S473.453,408.6,468.333,408.6z"></path> <path d="M391.533,314.733c0-5.12-3.413-8.533-8.533-8.533h-59.733c-5.12,0-8.533,3.413-8.533,8.533s3.413,8.533,8.533,8.533H383 C388.12,323.267,391.533,319.853,391.533,314.733z"></path> <path d="M212.333,323.267h76.8c5.12,0,8.533-3.413,8.533-8.533s-3.413-8.533-8.533-8.533h-76.8c-5.12,0-8.533,3.413-8.533,8.533 S207.213,323.267,212.333,323.267z"></path> <path d="M376.173,387.267c2.56,4.267,7.68,5.12,11.947,2.56l19.627-13.653c11.093,9.387,23.893,9.387,32.427,7.68l13.653,13.653 c1.707,1.707,3.413,2.56,5.973,2.56s4.267-0.853,5.973-2.56c3.413-3.413,3.413-8.533,0-11.947l-17.067-17.067 c-2.56-2.56-5.973-3.413-9.387-1.707c-0.853,0-12.8,5.12-23.893-6.827c-2.56-3.413-7.68-4.267-11.093-1.707l-25.6,17.067 C374.467,377.88,373.613,383,376.173,387.267z"></path> <path d="M289.133,220.867h51.2c5.12,0,8.533-3.413,8.533-8.533c0-5.12-3.413-8.533-8.533-8.533h-51.2 c-5.12,0-8.533,3.413-8.533,8.533C280.6,217.453,284.013,220.867,289.133,220.867z"></path> <path d="M468.333,237.933H408.6c-5.12,0-8.533,3.413-8.533,8.533S403.48,255,408.6,255h59.733c5.12,0,8.533-3.413,8.533-8.533 S473.453,237.933,468.333,237.933z"></path> </g> </g> </g> </g> </svg> 