<?xml version="1.0" encoding="UTF-8"?> <svg xmlns="http://www.w3.org/2000/svg" width="800px" height="800px" viewBox="0 0 48 48" fill="#000000"><g id="SVGRepo_bgCarrier" stroke-width="0"></g><g id="SVGRepo_tracerCarrier" stroke-linecap="round" stroke-linejoin="round"></g><g id="SVGRepo_iconCarrier"><defs><style>.a{fill:none;stroke:#fff;stroke-linecap:round;stroke-linejoin:round;}</style></defs><path class="a" d="M14,4.5H10.5a2,2,0,0,0-2,2v35a2,2,0,0,0,2,2h27a2,2,0,0,0,2-2V6.5a2,2,0,0,0-2-2H24"></path><path class="a" d="M12,4.5l1.4142-1.4142A2,2,0,0,1,14.8284,2.5H23a1,1,0,0,1,1,1v25l-5-5-5,5V4.5"></path><line class="a" x1="14" y1="38" x2="34" y2="38"></line><line class="a" x1="24" y1="10" x2="34" y2="10"></line><line class="a" x1="24" y1="17" x2="34" y2="17"></line><line class="a" x1="24" y1="24" x2="34" y2="24"></line><line class="a" x1="14" y1="31" x2="34" y2="31"></line></g></svg> 