<?xml version="1.0" encoding="UTF-8"?> <svg xmlns:sketch="http://www.bohemiancoding.com/sketch/ns" xmlns="http://www.w3.org/2000/svg" xmlns:xlink="http://www.w3.org/1999/xlink" version="1.1" id="Layer_1" width="800px" height="800px" viewBox="0 0 59 64" xml:space="preserve" fill="#000000"> <g id="SVGRepo_bgCarrier" stroke-width="0"></g> <g id="SVGRepo_tracerCarrier" stroke-linecap="round" stroke-linejoin="round"></g> <g id="SVGRepo_iconCarrier"> <title>Document-edit</title> <desc>Created with Sketch.</desc> <g id="Page-1"> <g id="Document-edit" transform="translate(1.000000, 1.000000)"> <path id="Shape_1_" fill="none" stroke="#c63e34c7" stroke-width="2" d="M47,45v15c0,1.1-0.9,2-2,2H2 c-1.1,0-2-0.9-2-2V2c0-1.1,0.9-2,2-2h25.9L47,18.1V33"></path> <path id="Shape" fill="none" stroke="#c63e34c7" stroke-width="2" d="M47,18.9H30c-1.1,0-2-0.9-2-2V1"></path> <path id="Shape_2_" fill="none" stroke="#c63e34c7" stroke-width="2" d="M9,17h13"></path> <path id="Shape_3_" fill="none" stroke="#c63e34c7" stroke-width="2" d="M9,27h31"></path> <path id="Shape_4_" fill="none" stroke="#c63e34c7" stroke-width="2" d="M9,34h31"></path> <path id="Shape_5_" fill="none" stroke="#c63e34c7" stroke-width="2" d="M9,43h24"></path> <path id="Shape_6_" fill="none" stroke="#c63e34c7" stroke-width="2" d="M9,49h17"></path> <g id="Group" transform="translate(27.000000, 29.000000)"> <path id="Shape_8_" fill="none" stroke="#c63e34c7" stroke-width="2" stroke-linejoin="round" d="M0,30l3.9-9.4L24.2,0.3 c0.4-0.4,1.1-0.4,1.6,0l3.9,3.9c0.4,0.4,0.4,1.1,0,1.6L9.4,26.1L0,30z"></path> <path id="Shape_9_" fill="none" stroke="#c63e34c7" stroke-width="2" d="M21.9,2.7l5.4,5.4"></path> </g> </g> </g> </g> </svg> 