<?xml version="1.0" encoding="UTF-8"?> <svg xmlns="http://www.w3.org/2000/svg" xmlns:xlink="http://www.w3.org/1999/xlink" fill="#c63e34c7" version="1.1" id="Layer_1" viewBox="0 0 511.999 511.999" xml:space="preserve" width="800px" height="800px"> <g id="SVGRepo_bgCarrier" stroke-width="0"></g> <g id="SVGRepo_tracerCarrier" stroke-linecap="round" stroke-linejoin="round"></g> <g id="SVGRepo_iconCarrier"> <g> <g> <path d="M123.259,85.334L0,208.592l75.851,75.852l123.259-123.259L123.259,85.334z M18.964,208.592l104.296-104.296l56.889,56.888 L75.852,265.481L18.964,208.592z"></path> </g> </g> <g> <g> <polygon points="270.222,232.297 260.741,241.777 355.555,336.592 341.333,350.814 255.999,265.481 246.518,274.962 341.333,369.778 374.517,336.592 "></polygon> </g> </g> <g> <g> <polygon points="327.11,365.037 317.629,374.518 232.295,289.185 222.814,298.666 317.629,393.48 336.591,374.518 "></polygon> </g> </g> <g> <g> <polygon points="303.406,388.74 293.926,398.221 284.444,388.74 274.963,398.221 293.926,417.184 312.887,398.221 "></polygon> </g> </g> <g> <g> <polygon points="134.986,290.683 134.986,272.275 115.317,251.355 105.436,260.643 121.424,277.65 121.424,297.166 135.696,308.684 144.212,298.129 "></polygon> </g> </g> <g> <g> <polygon points="279.703,412.444 270.222,421.925 260.74,412.444 251.259,421.925 270.222,440.889 289.184,421.925 "></polygon> </g> </g> <g> <g> <rect x="40.703" y="201.881" transform="matrix(0.7071 -0.7071 0.7071 0.7071 -133.6071 94.6157)" width="13.408" height="13.409"></rect> </g> </g> <g> <g> <path d="M383.999,71.11l-75.852,75.852l128,128l75.852-75.852L383.999,71.11z M327.11,146.963l56.889-56.889l109.037,109.037 L436.148,256L327.11,146.963z"></path> </g> </g> <g> <g> <rect x="457.886" y="192.411" transform="matrix(0.7071 -0.7071 0.7071 0.7071 -4.7199 386.8349)" width="13.409" height="13.407"></rect> </g> </g> <g> <g> <path d="M331.853,227.555c-5.065,5.064-11.801,7.854-18.964,7.854c-7.163,0-13.898-2.791-18.964-7.855l-23.704-23.703 l-42.667,42.667c-5.065,5.064-11.8,7.854-18.963,7.854c-4.871,0-9.543-1.29-13.628-3.709l63.813-63.813h28.444l25.667-25.667 l-9.481-9.481l-21.741,21.74h-28.444l-77.817,77.817l4.741,4.74c7.843,7.843,18.144,11.763,28.444,11.763 c10.301,0,20.602-3.921,28.444-11.763l33.185-33.185l14.223,14.221c7.597,7.598,17.699,11.782,28.444,11.782 s20.847-4.184,28.444-11.782L331.853,227.555z"></path> </g> </g> <g> <g> <rect x="204.261" y="165.776" transform="matrix(0.7071 -0.7071 0.7071 0.7071 -67.2817 202.6379)" width="13.408" height="33.518"></rect> </g> </g> <g> <g> <polygon points="393.282,241.714 377.013,257.925 377.013,276.901 350.649,303.362 360.256,312.934 390.575,282.505 390.575,263.556 402.854,251.321 "></polygon> </g> </g> <g> <g> <path d="M180.148,274.963l-56.889,56.889l104.24,104.24l56.889-56.889L180.148,274.963z M142.222,331.851l37.925-37.925 l14.222,14.222l-37.925,37.925L142.222,331.851z M165.926,355.555l37.925-37.925l14.194,14.193l-37.925,37.925L165.926,355.555z M189.63,379.259l37.925-37.925l14.166,14.166l-37.925,37.925L189.63,379.259z M227.499,417.128l-14.194-14.194l37.925-37.925 l14.194,14.194L227.499,417.128z"></path> </g> </g> </g> </svg> 