<?xml version="1.0" encoding="UTF-8"?> <svg xmlns="http://www.w3.org/2000/svg" xmlns:xlink="http://www.w3.org/1999/xlink" height="800px" width="800px" version="1.1" id="Capa_1" viewBox="0 0 79.512 79.512" xml:space="preserve" fill="#000000"> <g id="SVGRepo_bgCarrier" stroke-width="0"></g> <g id="SVGRepo_tracerCarrier" stroke-linecap="round" stroke-linejoin="round"></g> <g id="SVGRepo_iconCarrier"> <g> <path style="fill:#c63e34c2;" d="M27.038,20.496c6.694,0.12,13.045-1.002,18.955-4.146c2.409-1.282,4.865-2.511,7.129-4.02 c1.484-0.99,2.657-2.376,4.368-3.159c3.012-1.378,4.825-0.641,5.546,2.616c1.147,5.185,1.919,10.393,1.785,15.753 c-0.187,7.544-0.285,15.087-1.489,22.553c-0.341,2.114-0.872,4.225-1.572,6.248c-1.043,3.015-3.238,3.414-5.789,1.476 c-2.028-1.541-4.207-2.923-6.453-4.126c-3.499-1.874-7.175-3.447-11.129-4.008c-3.434-0.488-6.917-0.66-10.385-0.849 c-0.926-0.051-1.876,0.346-3.094,0.595c1.565,3.085,2.948,5.893,4.405,8.662c1.464,2.78,2.953,5.531,5.302,7.738 c1.308,1.229,1.18,1.832,0.028,3.174c-0.979,1.14-2.276,1.682-3.693,1.837c-2.967,0.325-5.919,0.165-8.839-0.523 c-0.989-0.233-1.486-0.823-1.931-1.714c-2.516-5.043-4.822-10.167-6.657-15.504c-0.506-1.472-1.261-2.861-1.966-4.257 c-0.168-0.333-0.551-0.627-0.903-0.785c-3.605-1.614-6.076-4.538-8.471-7.486C1.357,39.549-0.03,38.889,0,37.131 c0.044-2.516,0.087-4.992,1.432-7.204c1.371-2.258,2.907-4.417,4.246-6.692c0.958-1.626,2.332-2.453,4.095-2.928 c1.164-0.314,2.23-0.979,3.385-1.349c1.564-0.5,3.147-1.028,4.762-1.245c1.631-0.219,3.314-0.145,4.969-0.067 C24.775,17.736,26.104,18.818,27.038,20.496z M26.525,30.637c0.021,2.445,0.04,4.809,0.061,7.226 c9.67-0.963,18.268,2.099,26.582,6.514c0.299-7.024,0.584-13.72,0.884-20.769c-1.347,1.042-2.335,1.927-3.438,2.629 c-1.317,0.837-2.654,1.862-4.122,2.201c-4.1,0.949-8.25,1.745-12.422,2.283C31.733,31.022,29.315,30.691,26.525,30.637z M14.553,25.717c1.84,0.586,3.662,0.106,5.386,1.145c-1.949,0.149-3.639,0.278-5.317,0.406c0.01,1.187,0.018,2.056,0.024,2.785 c1.369,1.083,3.153-0.312,4.398,1.197c-1.579,0.195-2.998,0.371-4.488,0.556c0.011,1.292,0.019,2.266,0.028,3.46 c1.768,0.149,3.492,0.294,5.217,0.44c-0.007,0.087-0.015,0.175-0.021,0.262c-1.754,0.269-3.507,0.537-5.345,0.818 c-0.094,1.162-0.169,2.105-0.251,3.124c1.735,0.266,3.206,0.49,4.678,0.715c-0.002,0.118-0.003,0.235-0.005,0.353 c-1.568,0.263-3.137,0.525-4.713,0.789c0.01,1.19,0.019,2.146,0.026,3.076c1.517,0.235,2.873,0.445,4.761,0.737 c-4.563,1.231-4.563,1.231-4.722,2.381c2.081-0.018,4.138-0.013,6.193-0.057c3.13-0.068,3.402-0.244,3.599-3.404 c0.322-5.198,0.498-10.406,0.753-15.609c0.084-1.736,0.266-3.468,0.316-5.204c0.068-2.349-0.931-3.608-3.228-3.717 c-1.88-0.088-3.784,0.13-5.664,0.336c-0.562,0.062-1.079,0.536-1.916,0.98c2.102,1.147,4.15,0.18,6.3,1.167 c-2.26,0.296-4.11,0.539-6.029,0.79C14.54,24.147,14.546,24.866,14.553,25.717z M55.408,42.473c0.057,1.013,0.109,1.916,0.157,2.82 c0.181,3.408,0.743,6.742,2.047,9.912c0.252,0.612,0.741,1.125,1.252,1.879c1.423-1.905,1.72-3.8,2.052-5.629 c1.786-9.829,2.084-19.764,1.622-29.706c-0.145-3.107-1.13-6.179-1.775-9.257c-0.092-0.441-0.434-0.831-0.668-1.259 c-1.453,0.385-2.044,1.354-2.216,2.546c-0.601,4.162-1.136,8.333-1.706,12.578c2.474,0.848,3.898,2.534,4.408,4.759 C61.518,35.207,59.188,40.225,55.408,42.473z M55.312,14.052c-4.595,2.476-8.765,5.367-13.609,6.721 c-4.812,1.345-9.743,2.197-14.774,2.297c0.016,1.949,0.029,3.566,0.044,5.336c1.298,0.159,2.441,0.451,3.569,0.406 c2.305-0.093,4.641-0.17,6.894-0.607c5.077-0.985,10.235-1.733,14.363-5.432C54.406,20.437,55.465,17.697,55.312,14.052z M53.621,47.433c-1.91-1.11-3.688-2.33-5.616-3.226c-5.21-2.423-10.776-3.594-16.449-4.254c-1.704-0.199-3.44-0.119-5.118,0.78 c-0.112,1.881-0.223,3.726-0.346,5.767c5.077-0.153,9.987-0.118,14.614,1.44c4.595,1.547,9.013,3.616,13.515,5.458 C54.027,51.472,53.838,49.591,53.621,47.433z M11.813,46.202c0.133-4.428,0.117-8.365,0.406-12.28 c0.297-4.003,0.133-10.44-0.58-11.944c-1.777-0.082-2.983,0.855-3.861,2.26c-1.403,2.244-2.803,4.494-4.095,6.802 c-0.515,0.92-0.85,1.979-1.073,3.015c-0.384,1.77-0.125,3.418,1.214,4.818c1.543,1.614,2.934,3.378,4.53,4.933 C9.252,44.681,10.435,45.266,11.813,46.202z M33.27,68.021c-0.857-1.581-1.801-2.046-3.101-1.913 c-0.904,0.092-1.819,0.077-2.729,0.125c-1.121,0.06-1.824-0.402-2.315-1.457c-1.567-3.368-3.238-6.687-4.834-10.042 c-1.044-2.197-1.017-2.21-0.086-4.322c-1.71-0.458-3.131-0.382-5.374,0.34c1.161,2.996,2.242,6.017,3.502,8.961 c0.94,2.2,2.065,4.328,3.199,6.438c0.712,1.324,1.664,2.514,3.354,2.565c2.063,0.062,4.132,0.08,6.194,0.001 C31.754,68.693,32.414,68.305,33.27,68.021z M29.994,64.208c-0.777-1.491-1.406-2.734-2.067-3.96 c-1.328-2.464-2.667-4.922-4.015-7.376c-0.42-0.764-0.901-1.444-2.165-0.416c1.616,3.334,3.288,6.703,4.882,10.108 C27.246,63.882,28.211,64.326,29.994,64.208z M55.737,39.32c3.508-2.432,3.788-8.209,0.479-9.833 C55.33,31.919,55.113,36.398,55.737,39.32z"></path> <path style="fill:#c63e34c2;" d="M69.337,17.914c3.124-1.72,6.045-3.328,9.186-5.056c0.376,0.719,0.688,1.316,0.989,1.891 c-0.308,0.329-0.44,0.561-0.639,0.667c-2.09,1.114-4.195,2.198-6.286,3.31C71.233,19.446,70.632,19.343,69.337,17.914z"></path> <path style="fill:#c63e34c2;" d="M77.006,31.181c0.888,1.834,0.769,2.113-0.785,2.352c-1.693,0.261-3.379,0.573-5.067,0.876 c-1.167,0.21-2.106,0.058-2.43-1.639C71.528,32.233,74.28,31.705,77.006,31.181z"></path> <path style="fill:#c63e34c2;" d="M67.764,48.83c1.678,0.831,3.354,1.667,5.036,2.491c0.807,0.396,1.684,0.683,2.413,1.186 c0.368,0.254,0.733,0.932,0.654,1.329c-0.16,0.799-0.899,0.969-1.575,0.597c-2.167-1.195-4.325-2.409-6.424-3.717 c-0.359-0.224-0.405-0.948-0.596-1.441C67.436,49.126,67.6,48.978,67.764,48.83z"></path> </g> </g> </svg> 