<?xml version="1.0" encoding="UTF-8"?> <svg xmlns:sketch="http://www.bohemiancoding.com/sketch/ns" xmlns="http://www.w3.org/2000/svg" xmlns:xlink="http://www.w3.org/1999/xlink" version="1.1" id="Layer_1" width="800px" height="800px" viewBox="0 0 64 41" xml:space="preserve" fill="#000000" stroke="#000000"> <g id="SVGRepo_bgCarrier" stroke-width="0"></g> <g id="SVGRepo_tracerCarrier" stroke-linecap="round" stroke-linejoin="round"></g> <g id="SVGRepo_iconCarrier"> <title>Van</title> <desc>Created with Sketch.</desc> <g id="Page-1"> <g id="Van" transform="translate(1.000000, 1.000000)"> <g id="Group"> <path id="Shape_5_" fill="none" stroke="#c63e34c2" stroke-width="2" d="M55.2,34H60c1.1,0,2-0.9,2-2V2c0-1.1-0.9-2-2-2H30 c-1.1,0-2,0.9-2,2v31.7"></path> <path id="Shape" fill="none" stroke="#c63e34c2" stroke-width="2" d="M29,8H14c-1.1,0-2,2-2,2L7,20l-5,1c-1.1,0-2,1.9-2,3v8 c0,1.1,0.9,2,2,2h6.8"></path> <path id="Shape_1_" fill="none" stroke="#c63e34c2" stroke-width="2" d="M20,34h24"></path> <path id="Shape_3_" fill="none" stroke="#c63e34c2" stroke-width="2" d="M0.3,30H7"></path> <path id="Shape_4_" fill="none" stroke="#c63e34c2" stroke-width="2" d="M21,23h3"></path> <path id="Shape_6_" fill="none" stroke="#c63e34c2" stroke-width="2" d="M31,6h29"></path> <path id="Shape_7_" fill="none" stroke="#c63e34c2" stroke-width="2" d="M31,14h29"></path> <path id="Shape_8_" fill="none" stroke="#c63e34c2" stroke-width="2" d="M31,22h29"></path> <circle id="Oval" fill="none" stroke="#c63e34c2" stroke-width="2" cx="49.5" cy="33.5" r="5.5"></circle> <circle id="Oval_1_" fill="none" stroke="#c63e34c2" stroke-width="2" cx="14.5" cy="33.5" r="5.5"></circle> </g> <path id="Shape_9_" fill="none" stroke="#c63e34c2" stroke-width="2" d="M25,19c0,0.6-0.4,1-1,1H13 c-0.6,0-1-0.4-1-1l3-6c0,0,0.4-1,1-1h8c0.6,0,1,0.4,1,1V19L25,19z"></path> </g> </g> </g> </svg> 